<svg xmlns="http://www.w3.org/2000/svg" viewBox="0 0 64 64" fill="none">
  <defs>
    <linearGradient id="n3a" x1="0%" y1="0%" x2="100%" y2="100%">
      <stop offset="0%" style="stop-color:#0EA5E9"/>
      <stop offset="100%" style="stop-color:#0284C7"/>
    </linearGradient>
    <linearGradient id="n3b" x1="0%" y1="0%" x2="100%" y2="100%">
      <stop offset="0%" style="stop-color:#22C55E"/>
      <stop offset="100%" style="stop-color:#16A34A"/>
    </linearGradient>
  </defs>
  <!-- Hexagon frame -->
  <path d="M32 4L56 18V46L32 60L8 46V18L32 4Z" stroke="url(#n3a)" stroke-width="4" fill="none"/>
  <!-- Inner hexagon -->
  <path d="M32 12L48 22V42L32 52L16 42V22L32 12Z" fill="url(#n3a)" opacity="0.1"/>
  <!-- Document icon centered -->
  <rect x="22" y="18" width="20" height="28" rx="2" fill="url(#n3a)"/>
  <rect x="26" y="24" width="12" height="2" rx="1" fill="white" opacity="0.9"/>
  <rect x="26" y="29" width="9" height="2" rx="1" fill="white" opacity="0.7"/>
  <rect x="26" y="34" width="10" height="2" rx="1" fill="white" opacity="0.5"/>
  <!-- Green checkmark -->
  <circle cx="42" cy="42" r="8" fill="url(#n3b)"/>
  <path d="M38 42L40.5 44.5L46 39" stroke="white" stroke-width="2" stroke-linecap="round" stroke-linejoin="round"/>
  <!-- Connection nodes -->
  <circle cx="56" cy="18" r="3" fill="url(#n3b)"/>
  <circle cx="56" cy="46" r="3" fill="url(#n3a)"/>
  <circle cx="8" cy="32" r="3" fill="url(#n3a)"/>
</svg>