<svg xmlns="http://www.w3.org/2000/svg" viewBox="0 0 64 64" fill="none">
  <defs>
    <linearGradient id="n7a" x1="0%" y1="0%" x2="100%" y2="100%">
      <stop offset="0%" style="stop-color:#1E40AF"/>
      <stop offset="100%" style="stop-color:#1E3A8A"/>
    </linearGradient>
    <linearGradient id="n7b" x1="0%" y1="0%" x2="100%" y2="100%">
      <stop offset="0%" style="stop-color:#22C55E"/>
      <stop offset="100%" style="stop-color:#16A34A"/>
    </linearGradient>
  </defs>
  <!-- Shield with circuit pattern -->
  <path d="M32 4L56 14V32C56 46 44 56 32 60C20 56 8 46 8 32V14L32 4Z" fill="url(#n7a)"/>
  <!-- Circuit lines -->
  <path d="M16 20H24L28 24H36L40 20H48" stroke="#60A5FA" stroke-width="1.5" fill="none" opacity="0.5"/>
  <path d="M20 50V42L24 38H40L44 42V50" stroke="#60A5FA" stroke-width="1.5" fill="none" opacity="0.5"/>
  <!-- Central checkmark in circle -->
  <circle cx="32" cy="32" r="14" fill="white"/>
  <path d="M24 32L29 37L40 26" stroke="url(#n7b)" stroke-width="4" stroke-linecap="round" stroke-linejoin="round"/>
  <!-- Circuit nodes -->
  <circle cx="16" cy="20" r="2" fill="#60A5FA"/>
  <circle cx="48" cy="20" r="2" fill="#60A5FA"/>
  <circle cx="20" cy="50" r="2" fill="#60A5FA"/>
  <circle cx="44" cy="50" r="2" fill="#60A5FA"/>
</svg>