<svg xmlns="http://www.w3.org/2000/svg" viewBox="0 0 64 64" fill="none">
  <defs>
    <linearGradient id="n6ca" x1="0%" y1="0%" x2="100%" y2="100%">
      <stop offset="0%" style="stop-color:#0EA5E9"/>
      <stop offset="100%" style="stop-color:#0284C7"/>
    </linearGradient>
    <linearGradient id="n6cb" x1="0%" y1="0%" x2="100%" y2="100%">
      <stop offset="0%" style="stop-color:#22C55E"/>
      <stop offset="100%" style="stop-color:#16A34A"/>
    </linearGradient>
  </defs>
  <!-- C arc on left -->
  <path d="M28 6C12 6 4 18 4 32C4 46 12 58 28 58" stroke="url(#n6ca)" stroke-width="6" stroke-linecap="round" fill="none"/>
  <!-- O circle -->
  <circle cx="40" cy="32" r="18" fill="url(#n6ca)"/>
  <!-- Document 1 (back) -->
  <rect x="32" y="24" width="10" height="14" rx="1.5" fill="white" opacity="0.6" transform="rotate(-8 37 31)"/>
  <!-- Document 2 (front) -->
  <rect x="36" y="24" width="10" height="14" rx="1.5" fill="white"/>
  <!-- Document lines -->
  <rect x="38" y="27" width="6" height="1.5" rx="0.75" fill="#0EA5E9"/>
  <rect x="38" y="30" width="4" height="1.5" rx="0.75" fill="#0EA5E9" opacity="0.7"/>
  <rect x="38" y="33" width="5" height="1.5" rx="0.75" fill="#0EA5E9" opacity="0.5"/>
  <!-- Green verified badge -->
  <circle cx="52" cy="48" r="9" fill="url(#n6cb)"/>
  <path d="M47 48L50 51L57 44" stroke="white" stroke-width="2.5" stroke-linecap="round" stroke-linejoin="round"/>
</svg>