<svg xmlns="http://www.w3.org/2000/svg" viewBox="0 0 64 64" fill="none">
  <defs>
    <linearGradient id="grad3a" x1="0%" y1="0%" x2="100%" y2="100%">
      <stop offset="0%" style="stop-color:#0EA5E9"/>
      <stop offset="100%" style="stop-color:#0284C7"/>
    </linearGradient>
    <linearGradient id="grad3b" x1="0%" y1="100%" x2="0%" y2="0%">
      <stop offset="0%" style="stop-color:#F97316"/>
      <stop offset="100%" style="stop-color:#FB923C"/>
    </linearGradient>
    <filter id="glow3">
      <feGaussianBlur stdDeviation="1.5" result="blur"/>
      <feMerge><feMergeNode in="blur"/><feMergeNode in="SourceGraphic"/></feMerge>
    </filter>
  </defs>
  <!-- Circle background -->
  <circle cx="32" cy="32" r="28" fill="url(#grad3a)"/>
  <!-- Folder shape -->
  <path d="M16 22C16 20.9 16.9 20 18 20H26L30 24H46C47.1 24 48 24.9 48 26V44C48 45.1 47.1 46 46 46H18C16.9 46 16 45.1 16 44V22Z" fill="white"/>
  <!-- Document inside folder -->
  <rect x="24" y="28" width="16" height="14" rx="1" fill="#E0F2FE" stroke="#0EA5E9" stroke-width="0.5"/>
  <rect x="27" y="31" width="10" height="1.5" rx="0.75" fill="#0EA5E9" opacity="0.6"/>
  <rect x="27" y="35" width="7" height="1.5" rx="0.75" fill="#0EA5E9" opacity="0.4"/>
  <!-- Lightning bolt for speed -->
  <g filter="url(#glow3)">
    <path d="M44 14L38 26H44L40 36L50 22H44L48 14H44Z" fill="url(#grad3b)"/>
  </g>
  <!-- Sparkles -->
  <circle cx="12" cy="12" r="2" fill="#FB923C"/>
  <circle cx="56" cy="48" r="1.5" fill="#22D3EE"/>
</svg>