<svg xmlns="http://www.w3.org/2000/svg" viewBox="0 0 80 64" fill="none">
  <defs>
    <linearGradient id="grad4g1" x1="0%" y1="0%" x2="100%" y2="100%">
      <stop offset="0%" style="stop-color:#C084FC"/>
      <stop offset="100%" style="stop-color:#A855F7"/>
    </linearGradient>
    <linearGradient id="grad4g2" x1="0%" y1="0%" x2="100%" y2="100%">
      <stop offset="0%" style="stop-color:#38BDF8"/>
      <stop offset="100%" style="stop-color:#0EA5E9"/>
    </linearGradient>
    <filter id="glow4g">
      <feGaussianBlur stdDeviation="2" result="blur"/>
      <feMerge><feMergeNode in="blur"/><feMergeNode in="SourceGraphic"/></feMerge>
    </filter>
  </defs>
  <!-- C arc - brighter purple, shifted right -->
  <path d="M38 6C22 6 12 17 12 32C12 47 22 58 38 58" stroke="url(#grad4g1)" stroke-width="8" stroke-linecap="round" fill="none"/>
  <!-- O circle - brighter purple -->
  <circle cx="50" cy="32" r="18" fill="url(#grad4g1)"/>
  <!-- White document -->
  <rect x="40" y="20" width="20" height="24" rx="3" fill="white"/>
  <!-- Document lines -->
  <rect x="44" y="26" width="12" height="2" rx="1" fill="#E9D5FF"/>
  <rect x="44" y="31" width="8" height="2" rx="1" fill="#E9D5FF"/>
  <rect x="44" y="36" width="10" height="2" rx="1" fill="#E9D5FF"/>
  <!-- Blue upload badge with glow -->
  <circle cx="56" cy="40" r="7" fill="url(#grad4g2)" filter="url(#glow4g)"/>
  <path d="M56 43V37M56 37L53 40M56 37L59 40" stroke="white" stroke-width="2" stroke-linecap="round" stroke-linejoin="round"/>
  <!-- Processing ring - BLACK, full circle not cut off -->
  <circle cx="50" cy="32" r="26" stroke="#1e293b" stroke-width="2.5" stroke-dasharray="6 4" fill="none" opacity="0.8"/>
</svg>