<svg xmlns="http://www.w3.org/2000/svg" viewBox="0 0 64 64" fill="none">
  <defs>
    <linearGradient id="grad4a3" x1="0%" y1="0%" x2="100%" y2="100%">
      <stop offset="0%" style="stop-color:#A78BFA"/>
      <stop offset="50%" style="stop-color:#8B5CF6"/>
      <stop offset="100%" style="stop-color:#7C3AED"/>
    </linearGradient>
    <linearGradient id="grad4b3" x1="0%" y1="0%" x2="100%" y2="100%">
      <stop offset="0%" style="stop-color:#34D399"/>
      <stop offset="100%" style="stop-color:#10B981"/>
    </linearGradient>
    <linearGradient id="grad4c3" x1="0%" y1="0%" x2="100%" y2="100%">
      <stop offset="0%" style="stop-color:#F472B6"/>
      <stop offset="100%" style="stop-color:#EC4899"/>
    </linearGradient>
    <filter id="glow4c">
      <feGaussianBlur stdDeviation="2" result="blur"/>
      <feMerge><feMergeNode in="blur"/><feMergeNode in="SourceGraphic"/></feMerge>
    </filter>
  </defs>
  <!-- C arc with inner line detail -->
  <path d="M30 6C14 6 4 17 4 32C4 47 14 58 30 58" stroke="url(#grad4a3)" stroke-width="8" stroke-linecap="round" fill="none"/>
  <path d="M28 12C16 12 10 20 10 32C10 44 16 52 28 52" stroke="white" stroke-width="1.5" stroke-linecap="round" fill="none" opacity="0.3"/>
  <!-- O circle -->
  <circle cx="42" cy="32" r="18" fill="url(#grad4a3)"/>
  <circle cx="42" cy="32" r="15" stroke="white" stroke-width="1" fill="none" opacity="0.2"/>
  <!-- White document -->
  <rect x="32" y="20" width="20" height="24" rx="3" fill="white"/>
  <!-- Document lines -->
  <rect x="36" y="26" width="12" height="2" rx="1" fill="#DDD6FE"/>
  <rect x="36" y="31" width="8" height="2" rx="1" fill="#DDD6FE"/>
  <rect x="36" y="36" width="10" height="2" rx="1" fill="#DDD6FE"/>
  <!-- Dual badge - checkmark + AI spark -->
  <circle cx="48" cy="40" r="7" fill="url(#grad4b3)" filter="url(#glow4c)"/>
  <path d="M44 40L46.5 42.5L52 37" stroke="white" stroke-width="2" stroke-linecap="round" stroke-linejoin="round"/>
  <!-- AI spark accent -->
  <circle cx="30" cy="16" r="5" fill="url(#grad4c3)" filter="url(#glow4c)"/>
  <path d="M30 13V19M27 16H33" stroke="white" stroke-width="1.5" stroke-linecap="round"/>
</svg>