<svg xmlns="http://www.w3.org/2000/svg" viewBox="0 0 64 64" fill="none">
  <defs>
    <linearGradient id="n4a" x1="0%" y1="0%" x2="100%" y2="100%">
      <stop offset="0%" style="stop-color:#0EA5E9"/>
      <stop offset="100%" style="stop-color:#0284C7"/>
    </linearGradient>
    <linearGradient id="n4b" x1="0%" y1="0%" x2="100%" y2="100%">
      <stop offset="0%" style="stop-color:#22C55E"/>
      <stop offset="100%" style="stop-color:#16A34A"/>
    </linearGradient>
  </defs>
  <!-- C shape from stylized bracket -->
  <path d="M20 8C10 8 4 16 4 32C4 48 10 56 20 56" stroke="url(#n4a)" stroke-width="6" stroke-linecap="round" fill="none"/>
  <!-- Document inside -->
  <rect x="24" y="14" width="28" height="36" rx="3" fill="url(#n4a)"/>
  <path d="M40 14V22H52" fill="#0369A1"/>
  <path d="M40 14L52 22H40V14Z" fill="#38BDF8"/>
  <!-- Document lines -->
  <rect x="30" y="28" width="16" height="2.5" rx="1.25" fill="white" opacity="0.9"/>
  <rect x="30" y="34" width="12" height="2.5" rx="1.25" fill="white" opacity="0.7"/>
  <rect x="30" y="40" width="14" height="2.5" rx="1.25" fill="white" opacity="0.5"/>
  <!-- Green checkmark badge -->
  <circle cx="48" cy="46" r="9" fill="url(#n4b)"/>
  <path d="M43 46L46 49L53 42" stroke="white" stroke-width="2.5" stroke-linecap="round" stroke-linejoin="round"/>
</svg>