<svg xmlns="http://www.w3.org/2000/svg" viewBox="0 0 88 76" fill="none">
  <defs>
    <linearGradient id="grad4f1" x1="0%" y1="0%" x2="100%" y2="100%">
      <stop offset="0%" style="stop-color:#C084FC"/>
      <stop offset="100%" style="stop-color:#A855F7"/>
    </linearGradient>
    <linearGradient id="grad4f2" x1="0%" y1="0%" x2="100%" y2="100%">
      <stop offset="0%" style="stop-color:#38BDF8"/>
      <stop offset="100%" style="stop-color:#0EA5E9"/>
    </linearGradient>
    <filter id="glow4f">
      <feGaussianBlur stdDeviation="2" result="blur"/>
      <feMerge><feMergeNode in="blur"/><feMergeNode in="SourceGraphic"/></feMerge>
    </filter>
  </defs>
  <!-- C arc - brighter purple -->
  <path d="M38 12C20 12 10 24 10 38C10 52 20 64 38 64" stroke="url(#grad4f1)" stroke-width="8" stroke-linecap="round" fill="none"/>
  <!-- O circle - brighter purple -->
  <circle cx="50" cy="38" r="18" fill="url(#grad4f1)"/>
  <!-- White document -->
  <rect x="40" y="26" width="20" height="24" rx="3" fill="white"/>
  <!-- Document lines -->
  <rect x="44" y="32" width="12" height="2" rx="1" fill="#E9D5FF"/>
  <rect x="44" y="37" width="8" height="2" rx="1" fill="#E9D5FF"/>
  <rect x="44" y="42" width="10" height="2" rx="1" fill="#E9D5FF"/>
  <!-- Blue upload badge with glow -->
  <circle cx="56" cy="46" r="7" fill="url(#grad4f2)" filter="url(#glow4f)"/>
  <path d="M56 49V43M56 43L53 46M56 43L59 46" stroke="white" stroke-width="2" stroke-linecap="round" stroke-linejoin="round"/>
  <!-- Processing ring - cyan/blue dashed, fully visible -->
  <circle cx="50" cy="38" r="26" stroke="url(#grad4f2)" stroke-width="2" stroke-dasharray="8 4" fill="none" opacity="0.7"/>
</svg>