<svg width="200" height="80" viewBox="0 0 200 80" xmlns="http://www.w3.org/2000/svg">
  <!-- Background circle/container -->
  <defs>
    <linearGradient id="bgGradient" x1="0%" y1="0%" x2="100%" y2="100%">
      <stop offset="0%" style="stop-color:#1e3a8a;stop-opacity:1" />
      <stop offset="100%" style="stop-color:#1e40af;stop-opacity:1" />
    </linearGradient>
    <filter id="texture" x="-20%" y="-20%" width="140%" height="140%">
      <feTurbulence type="fractalNoise" baseFrequency="0.8" numOctaves="4" result="noise"/>
      <feColorMatrix type="matrix" values="0 0 0 0 0.1 0 0 0 0 0.1 0 0 0 0 0.1 0 0 0 0.3 0" result="coloredNoise"/>
      <feBlend mode="multiply" in="SourceGraphic" in2="coloredNoise"/>
    </filter>
  </defs>
  
  <!-- Document icon -->
  <g transform="translate(20, 15)">
    <!-- Document body (olive green) -->
    <rect x="0" y="0" width="40" height="50" rx="3" ry="3" 
          fill="#6b7280" stroke="#4b5563" stroke-width="1" 
          transform="rotate(5 20 25)" filter="url(#texture)"/>
    
    <!-- Folded corner (golden yellow) -->
    <path d="M 35 5 L 40 0 L 40 10 L 35 15 Z" 
          fill="#f59e0b" stroke="#d97706" stroke-width="0.5" 
          transform="rotate(5 20 25)" filter="url(#texture)"/>
    
    <!-- Text lines (olive green) -->
    <rect x="8" y="12" width="24" height="2" fill="#6b7280" transform="rotate(5 20 25)"/>
    <rect x="8" y="18" width="20" height="2" fill="#6b7280" transform="rotate(5 20 25)"/>
    <rect x="8" y="24" width="22" height="2" fill="#6b7280" transform="rotate(5 20 25)"/>
    
    <!-- Upward arrow (golden yellow) -->
    <path d="M 25 20 L 30 15 L 35 20 L 32 20 L 32 35 L 28 35 L 28 20 Z" 
          fill="#f59e0b" stroke="#d97706" stroke-width="0.5" 
          transform="rotate(5 20 25)" filter="url(#texture)"/>
  </g>
  
  <!-- Text "ClarifyOps" -->
  <text x="80" y="45" font-family="Arial, sans-serif" font-size="24" font-weight="bold" 
        fill="#f8fafc" filter="url(#texture)">
    ClarifyOps
  </text>
</svg>
