<svg xmlns="http://www.w3.org/2000/svg" viewBox="0 0 64 64" fill="none">
  <defs>
    <linearGradient id="grad2a" x1="0%" y1="0%" x2="100%" y2="100%">
      <stop offset="0%" style="stop-color:#6366F1"/>
      <stop offset="100%" style="stop-color:#4F46E5"/>
    </linearGradient>
    <linearGradient id="grad2b" x1="0%" y1="0%" x2="100%" y2="100%">
      <stop offset="0%" style="stop-color:#22D3EE"/>
      <stop offset="100%" style="stop-color:#06B6D4"/>
    </linearGradient>
  </defs>
  <!-- Stacked documents effect -->
  <rect x="16" y="12" width="28" height="36" rx="4" fill="#C7D2FE" transform="rotate(-6 16 12)"/>
  <rect x="18" y="10" width="28" height="36" rx="4" fill="#A5B4FC" transform="rotate(-3 18 10)"/>
  <rect x="20" y="8" width="28" height="36" rx="4" fill="url(#grad2a)"/>
  <!-- Document lines -->
  <rect x="26" y="16" width="16" height="2.5" rx="1.25" fill="white" opacity="0.9"/>
  <rect x="26" y="22" width="12" height="2.5" rx="1.25" fill="white" opacity="0.7"/>
  <rect x="26" y="28" width="14" height="2.5" rx="1.25" fill="white" opacity="0.5"/>
  <!-- Upload arrow -->
  <circle cx="34" cy="38" r="8" fill="url(#grad2b)"/>
  <path d="M34 42V34M34 34L30 38M34 34L38 38" stroke="white" stroke-width="2" stroke-linecap="round" stroke-linejoin="round"/>
  <!-- Sparkles -->
  <circle cx="54" cy="10" r="2.5" fill="#22D3EE"/>
  <circle cx="10" cy="50" r="2" fill="#6366F1"/>
</svg>