<svg xmlns="http://www.w3.org/2000/svg" viewBox="0 0 64 64" fill="none">
  <defs>
    <linearGradient id="n6ba" x1="0%" y1="0%" x2="100%" y2="100%">
      <stop offset="0%" style="stop-color:#0EA5E9"/>
      <stop offset="100%" style="stop-color:#0284C7"/>
    </linearGradient>
    <linearGradient id="n6bb" x1="0%" y1="0%" x2="100%" y2="100%">
      <stop offset="0%" style="stop-color:#22C55E"/>
      <stop offset="100%" style="stop-color:#16A34A"/>
    </linearGradient>
  </defs>
  <!-- C arc on left -->
  <path d="M28 6C12 6 4 18 4 32C4 46 12 58 28 58" stroke="url(#n6ba)" stroke-width="6" stroke-linecap="round" fill="none"/>
  <!-- O circle with umbrella (insurance symbol) inside -->
  <circle cx="40" cy="32" r="18" fill="url(#n6ba)"/>
  <!-- Umbrella shape (insurance symbol) -->
  <path d="M40 20C32 20 26 26 26 32H40H54C54 26 48 20 40 20Z" fill="white"/>
  <!-- Umbrella handle -->
  <path d="M40 32V42C40 44 38 46 36 46" stroke="white" stroke-width="2.5" stroke-linecap="round" fill="none"/>
  <!-- Umbrella pole -->
  <line x1="40" y1="16" x2="40" y2="20" stroke="white" stroke-width="2.5" stroke-linecap="round"/>
  <!-- Green verified badge -->
  <circle cx="52" cy="48" r="9" fill="url(#n6bb)"/>
  <path d="M47 48L50 51L57 44" stroke="white" stroke-width="2.5" stroke-linecap="round" stroke-linejoin="round"/>
</svg>