<svg xmlns="http://www.w3.org/2000/svg" viewBox="0 0 64 64" fill="none">
  <defs>
    <linearGradient id="n2a" x1="0%" y1="0%" x2="100%" y2="100%">
      <stop offset="0%" style="stop-color:#1E40AF"/>
      <stop offset="100%" style="stop-color:#1E3A8A"/>
    </linearGradient>
    <linearGradient id="n2b" x1="0%" y1="0%" x2="100%" y2="100%">
      <stop offset="0%" style="stop-color:#22C55E"/>
      <stop offset="100%" style="stop-color:#16A34A"/>
    </linearGradient>
  </defs>
  <!-- Shield shape -->
  <path d="M32 4L56 14V32C56 46 44 56 32 60C20 56 8 46 8 32V14L32 4Z" fill="url(#n2a)"/>
  <!-- Inner shield highlight -->
  <path d="M32 10L50 18V32C50 42 40 50 32 54C24 50 14 42 14 32V18L32 10Z" fill="#1E3A8A" opacity="0.5"/>
  <!-- Document inside shield -->
  <rect x="22" y="20" width="20" height="26" rx="2" fill="white"/>
  <rect x="26" y="26" width="12" height="2" rx="1" fill="#93C5FD"/>
  <rect x="26" y="31" width="9" height="2" rx="1" fill="#93C5FD"/>
  <rect x="26" y="36" width="10" height="2" rx="1" fill="#93C5FD"/>
  <!-- Green checkmark badge -->
  <circle cx="42" cy="42" r="8" fill="url(#n2b)"/>
  <path d="M38 42L40.5 44.5L46 39" stroke="white" stroke-width="2" stroke-linecap="round" stroke-linejoin="round"/>
</svg>