<svg xmlns="http://www.w3.org/2000/svg" viewBox="0 0 64 64" fill="none">
  <defs>
    <linearGradient id="grad4a2" x1="0%" y1="0%" x2="100%" y2="100%">
      <stop offset="0%" style="stop-color:#8B5CF6"/>
      <stop offset="100%" style="stop-color:#6D28D9"/>
    </linearGradient>
    <linearGradient id="grad4b2" x1="0%" y1="0%" x2="100%" y2="100%">
      <stop offset="0%" style="stop-color:#22D3EE"/>
      <stop offset="100%" style="stop-color:#06B6D4"/>
    </linearGradient>
    <filter id="shadow4b">
      <feDropShadow dx="0" dy="3" stdDeviation="3" flood-color="#6D28D9" flood-opacity="0.4"/>
    </filter>
  </defs>
  <!-- C arc - thicker and bolder -->
  <path d="M30 6C14 6 4 17 4 32C4 47 14 58 30 58" stroke="url(#grad4a2)" stroke-width="10" stroke-linecap="round" fill="none"/>
  <!-- O circle with document - with shadow -->
  <circle cx="42" cy="32" r="18" fill="url(#grad4a2)" filter="url(#shadow4b)"/>
  <!-- White document with corner fold -->
  <path d="M32 20H48L52 24V44H32V20Z" fill="white"/>
  <path d="M48 20V24H52" fill="#E9D5FF"/>
  <path d="M48 20L52 24H48V20Z" fill="#DDD6FE"/>
  <!-- Document lines -->
  <rect x="36" y="28" width="12" height="2" rx="1" fill="#C4B5FD"/>
  <rect x="36" y="33" width="8" height="2" rx="1" fill="#C4B5FD"/>
  <rect x="36" y="38" width="10" height="2" rx="1" fill="#C4B5FD"/>
  <!-- Cyan upload arrow instead of checkmark -->
  <circle cx="48" cy="42" r="7" fill="url(#grad4b2)"/>
  <path d="M48 45V39M48 39L45 42M48 39L51 42" stroke="white" stroke-width="2" stroke-linecap="round" stroke-linejoin="round"/>
</svg>