<svg xmlns="http://www.w3.org/2000/svg" viewBox="0 0 64 64" fill="none">
  <defs>
    <linearGradient id="grad4a" x1="0%" y1="0%" x2="100%" y2="100%">
      <stop offset="0%" style="stop-color:#8B5CF6"/>
      <stop offset="100%" style="stop-color:#7C3AED"/>
    </linearGradient>
    <linearGradient id="grad4b" x1="0%" y1="0%" x2="100%" y2="100%">
      <stop offset="0%" style="stop-color:#10B981"/>
      <stop offset="100%" style="stop-color:#059669"/>
    </linearGradient>
  </defs>
  <!-- Abstract C shape -->
  <path d="M32 4C16 4 4 16 4 32C4 48 16 60 32 60" stroke="url(#grad4a)" stroke-width="8" stroke-linecap="round" fill="none"/>
  <!-- Abstract O with document -->
  <circle cx="42" cy="32" r="18" fill="url(#grad4a)"/>
  <!-- White document cutout -->
  <rect x="32" y="20" width="20" height="24" rx="3" fill="white"/>
  <!-- Document lines -->
  <rect x="36" y="26" width="12" height="2" rx="1" fill="#DDD6FE"/>
  <rect x="36" y="31" width="8" height="2" rx="1" fill="#DDD6FE"/>
  <rect x="36" y="36" width="10" height="2" rx="1" fill="#DDD6FE"/>
  <!-- Checkmark badge -->
  <circle cx="48" cy="40" r="7" fill="url(#grad4b)"/>
  <path d="M44 40L46.5 42.5L52 37" stroke="white" stroke-width="2" stroke-linecap="round" stroke-linejoin="round"/>
  <!-- Sparkles -->
  <circle cx="58" cy="10" r="2.5" fill="#A78BFA"/>
  <circle cx="6" cy="50" r="2" fill="#34D399"/>
  <circle cx="54" cy="56" r="1.5" fill="#F472B6"/>
</svg>